<?xml version="1.0" encoding="utf-8"?>
<!-- Generator: Adobe Illustrator 22.0.1, SVG Export Plug-In . SVG Version: 6.00 Build 0)  -->
<svg version="1.1" id="Слой_1" focusable="false"
	 xmlns="http://www.w3.org/2000/svg" xmlns:xlink="http://www.w3.org/1999/xlink" x="0px" y="0px" width="448px" height="392px"
	 viewBox="0 0 448 392" style="enable-background:new 0 0 448 392;" xml:space="preserve">
<style type="text/css">
	.st0{fill:#333333;}
</style>
<path class="st0" d="M16,72h416c8.837,0,16-7.163,16-16V16c0-8.837-7.163-16-16-16H16C7.163,0,0,7.163,0,16v40
	C0,64.837,7.163,72,16,72z M16,232h416c8.837,0,16-7.163,16-16v-40c0-8.837-7.163-16-16-16H16c-8.837,0-16,7.163-16,16v40
	C0,224.837,7.163,232,16,232z M16,392h416c8.837,0,16-7.163,16-16v-40c0-8.837-7.163-16-16-16H16c-8.837,0-16,7.163-16,16v40
	C0,384.837,7.163,392,16,392z"/>
</svg>
