<?xml version="1.0" encoding="utf-8"?>
<!-- Generator: Adobe Illustrator 22.0.1, SVG Export Plug-In . SVG Version: 6.00 Build 0)  -->
<svg version="1.1" id="Слой_1" focusable="false"
	 xmlns="http://www.w3.org/2000/svg" xmlns:xlink="http://www.w3.org/1999/xlink" x="0px" y="0px" width="448px" height="448px"
	 viewBox="0 0 448 448" style="enable-background:new 0 0 448 448;" xml:space="preserve">
<style type="text/css">
	.st0{fill:#333333;}
</style>
<path class="st0" d="M416,176H272V32c0-17.67-14.33-32-32-32h-32c-17.67,0-32,14.33-32,32v144H32c-17.67,0-32,14.33-32,32v32
	c0,17.67,14.33,32,32,32h144v144c0,17.67,14.33,32,32,32h32c17.67,0,32-14.33,32-32V272h144c17.67,0,32-14.33,32-32v-32
	C448,190.33,433.67,176,416,176z"/>
</svg>
