<svg xmlns="http://www.w3.org/2000/svg" viewBox="0 0 16 16">
  <g fill="none" fill-rule="evenodd">
    <polygon fill="none" points="0 16 15.993 16 15.993 0 0 0"/>
    <path fill="#333" d="M4.3178,11.0279 C3.8604,10.8135 3.5434,10.3488 3.5434,9.8107 C3.5434,9.0693 4.1454,8.4673 4.8868,8.4673 C5.1098,8.4673 5.3201,8.5217 5.5053,8.618 C6.2562,8.9859 7.1003,9.1924 7.9923,9.1924 C8.8862,9.1924 9.7321,8.9849 10.4844,8.6155 L10.4844,8.6157 C10.6685,8.5208 10.8773,8.4673 11.0984,8.4673 C11.8399,8.4673 12.4419,9.0693 12.4419,9.8107 C12.4419,10.3495 12.1241,10.8146 11.6659,11.0286 L11.6659,11.0288 C11.1592,11.2776 10.6237,11.4765 10.0658,11.6192 L11.901,13.6989 C12.3918,14.255 12.3388,15.1049 11.7826,15.5957 C11.2265,16.0865 10.3766,16.0334 9.8858,15.4773 L7.9918,13.331 L6.0977,15.4773 C5.6069,16.0334 4.757,16.0865 4.2009,15.5957 C3.6448,15.1049 3.5917,14.255 4.0825,13.6989 L5.9179,11.619 C5.3599,11.4762 4.8243,11.2772 4.3176,11.0283 L4.3178,11.0279 Z M7.9926,0.0683 C10.2631,0.0683 12.1063,1.9116 12.1063,4.182 C12.1063,6.4524 10.2631,8.2957 7.9926,8.2957 C5.7222,8.2957 3.8789,6.4524 3.8789,4.182 C3.8789,1.9116 5.7222,0.0683 7.9926,0.0683 Z M7.9926,2.5668 C8.8841,2.5668 9.6078,3.2906 9.6078,4.182 C9.6078,5.0735 8.8841,5.7972 7.9926,5.7972 C7.1012,5.7972 6.3774,5.0735 6.3774,4.182 C6.3774,3.2906 7.1012,2.5668 7.9926,2.5668 Z"/>
  </g>
</svg>
