<svg viewBox="0 0 16 16" version="1.1" xmlns="http://www.w3.org/2000/svg" xmlns:xlink="http://www.w3.org/1999/xlink" xml:space="preserve" xmlns:serif="http://www.serif.com/" style="fill-rule:evenodd;clip-rule:evenodd;stroke-linejoin:round;stroke-miterlimit:2;"><rect id="_16_instagram" serif:id="16_instagram" x="0" y="0" width="16" height="16" style="fill:none;"/><rect id="bg" x="0.007" y="0" width="15.993" height="16" style="fill:none;"/><path id="_16_instagram1" serif:id="16_instagram" d="M11.52,16l-7.04,0c-2.473,0 -4.48,-2.007 -4.48,-4.48l0,-7.04c0,-2.473 2.007,-4.48 4.48,-4.48l7.04,0c2.473,0 4.48,2.007 4.48,4.48l0,7.04c0,2.473 -2.007,4.48 -4.48,4.48Zm-0.04,-14l-6.96,0c-1.391,0 -2.52,1.129 -2.52,2.52l0,6.96c0,1.391 1.129,2.52 2.52,2.52l6.96,0c1.391,0 2.52,-1.129 2.52,-2.52l0,-6.96c0,-1.391 -1.129,-2.52 -2.52,-2.52Zm0.52,1c0.552,0 1,0.448 1,1c0,0.552 -0.448,1 -1,1c-0.552,0 -1,-0.448 -1,-1c0,-0.552 0.448,-1 1,-1Zm-4,1c2.208,0 4,1.792 4,4c0,2.208 -1.792,4 -4,4c-2.208,0 -4,-1.792 -4,-4c0,-2.208 1.792,-4 4,-4Zm0,2c1.104,0 2,0.896 2,2c0,1.104 -0.896,2 -2,2c-1.104,0 -2,-0.896 -2,-2c0,-1.104 0.896,-2 2,-2Z" style="fill:#333;"/></svg>