<svg xmlns="http://www.w3.org/2000/svg" viewBox="0 0 16 16">
  <path fill="#333" fill-rule="evenodd" d="M13,0 C14.6558,0 16,1.3443 16,3 L16,13 C16,14.6557 14.6557,16 13,16 L3,16 C1.3443,16 0,14.6557 0,13 L0,3 C0,1.3443 1.3442,0 3,0 L13,0 Z M3.7173,4.848 L2.3455,4.848 C2.1466,4.848 2,4.9841 2,5.183 C2,5.5495 2.4293,7.2459 4.1152,9.5182 C5.2461,11.0469 6.733,11.8741 8.0733,11.8741 C8.8901,11.8741 9.089,11.7381 9.089,11.3925 L9.089,10.2197 C9.089,9.9265 9.2042,9.8009 9.3717,9.8009 C9.5602,9.8009 9.8929,9.8614 10.6702,10.6281 C11.5916,11.5077 11.6545,11.8741 12.1571,11.8741 L13.6963,11.8741 C13.8534,11.8741 14,11.8008 14,11.5391 C14,11.1935 13.5497,10.5757 12.8586,9.8427 C12.5759,9.4658 12.1152,9.0574 11.9686,8.869 C11.7592,8.649 11.822,8.5233 11.9686,8.293 C11.9686,8.293 13.5497,6.0627 13.7068,5.3297 C13.7592,5.0679 13.644,4.9213 13.3717,4.9212 L12,4.9212 C11.6859,4.9213 11.5707,5.0574 11.4764,5.2563 C11.4764,5.2563 10.7348,6.8366 9.8325,7.8323 C9.5428,8.1542 9.3955,8.2511 9.2356,8.2511 C9.1066,8.2511 9.0471,8.1436 9.0471,7.8532 L9.0471,5.3087 C9.0471,4.9528 9.0052,4.848 8.7121,4.848 L6.5131,4.848 C6.3455,4.848 6.2408,4.9454 6.2408,5.0783 C6.2408,5.4136 6.7539,5.4893 6.7539,6.3977 L6.7539,8.2721 C6.7539,8.649 6.733,8.7956 6.555,8.7956 C6.0838,8.7956 4.9634,7.1726 4.3351,5.3297 C4.2095,4.9527 4.0733,4.848 3.7173,4.848 Z"/>
</svg>
