<?xml version="1.0" encoding="utf-8"?>
<!-- Generator: Adobe Illustrator 24.0.1, SVG Export Plug-In . SVG Version: 6.00 Build 0)  -->
<svg version="1.1" id="Слой_1" xmlns="http://www.w3.org/2000/svg" xmlns:xlink="http://www.w3.org/1999/xlink" x="0px" y="0px"
	 width="2443px" height="2500px" viewBox="0 0 2443 2500" style="enable-background:new 0 0 2443 2500;" xml:space="preserve">
<style type="text/css">
	.st0{fill:#333333;}
</style>
<path class="st0" d="M2441.71,1273.387c0-102.424-8.311-177.166-26.298-254.676h-1169.58v462.29h686.517
	c-13.836,114.885-88.578,287.901-254.676,404.16l-2.328,15.477l369.8,286.479l25.62,2.557
	C2306.061,1972.366,2441.71,1652.634,2441.71,1273.387"/>
<path class="st0" d="M1245.832,2491.412c336.336,0,618.693-110.735,824.933-301.737l-393.092-304.513
	c-105.191,73.359-246.374,124.571-431.842,124.571c-329.418,0-609.008-217.3-708.674-517.653l-14.609,1.241l-384.523,297.586
	l-5.029,13.979C337.845,2211.813,758.618,2491.412,1245.832,2491.412"/>
<path class="st0" d="M537.158,1492.08c-26.298-77.51-41.517-160.563-41.517-246.374c0-85.821,15.219-168.865,40.134-246.374
	l-0.697-16.508L145.737,680.458l-12.739,6.059C48.571,855.382,0.126,1045.01,0.126,1245.706s48.445,390.315,132.872,559.179
	L537.158,1492.08"/>
<path class="st0" d="M1245.832,481.67c233.912,0,391.699,101.04,481.67,185.477l351.565-343.263
	C1863.151,123.187,1582.168,0,1245.832,0C758.618,0,337.845,279.59,132.998,686.517l402.777,312.815
	C636.824,698.979,916.414,481.67,1245.832,481.67"/>
</svg>
